# xmcd
#
# Track frame offsets: 
#        150
#        12694
#        26512
#        38176
#        49901
#        64230
#        75754
#        88033
#        101878
#        115033
#        128638
#        143471
#        156288
#        167032
#
# Disc length: 2445 seconds
#
# Revision: 0
# Processed by: cddbd v1.5.2PL0 Copyright (c) Steve Scherf et al.
# Submitted via: ExactAudioCopyFreeDBPlugin 1.0
#
DISCID=af098b0e
DTITLE=B.B. King - Anthology - Dejavu Definitive Gold [Disc 3]
DYEAR=2010
DGENRE=General Electric Blues
TTITLE0=Please Hurry Home
TTITLE1=Ruby Lee
TTITLE2=Shake It Up And Go
TTITLE3=She's A Mean Woman
TTITLE4=She Don't Move Me No More
TTITLE5=She's Dynamite
TTITLE6=Shut Your Mouth
TTITLE7=Sneakin' Around
TTITLE8=Someday, Somewhere
TTITLE9=Story From Her Heart And Soul
TTITLE10=Sweet Little Angel
TTITLE11=Ten Long Years
TTITLE12=That Ain't The Way To Do It
TTITLE13=The Other NIght Blues
EXTD=
EXTT0=
EXTT1=
EXTT2=
EXTT3=
EXTT4=
EXTT5=
EXTT6=
EXTT7=
EXTT8=
EXTT9=
EXTT10=
EXTT11=
EXTT12=
EXTT13=
PLAYORDER=
